<?xml version="1.0" encoding="UTF-8"?>
<svg xmlns="http://www.w3.org/2000/svg" xmlns:xlink="http://www.w3.org/1999/xlink" width="3750pt" height="3750pt" viewBox="0 0 3750 3750" version="1.1">
<g id="surface1">
<rect x="0" y="0" width="3750" height="3750" style="fill:rgb(100%,100%,100%);fill-opacity:1;stroke:none;"/>
<path style=" stroke:none;fill-rule:nonzero;fill:rgb(0%,0%,0%);fill-opacity:1;" d="M 90.78125 3255.78125 L 909.691406 3267.300781 L 905.035156 3276.832031 L 791.035156 3134.625 L 800.636719 3127.933594 C 854.992188 3218.328125 908.9375 3308.160156 1086.519531 3403.460938 C 1192.890625 3460.542969 1342.808594 3519.132813 1480.039063 3519.132813 C 1572.710938 3519.132813 1659.078125 3492.441406 1722.71875 3421.066406 L 1722.71875 3421.070313 C 1871.929688 3253.746094 1898.699219 2840.316406 1917.941406 2539.390625 C 1919.269531 2518.78125 1920.539063 2498.859375 1921.820313 2479.449219 C 1941.820313 2177.800781 1962.480469 2037.601563 1983.128906 1897.46875 C 1983.308594 1896.238281 1983.871094 1895.101563 1984.75 1894.210938 C 2071.699219 1805.828125 2157.210938 1718.78125 2184.988281 1658.238281 C 2211.679688 1600.070313 2184.289063 1567.289063 2154.378906 1531.769531 L 2164.71875 1528.210938 L 2164.71875 1528.160156 C 2164.550781 1534.46875 2164.359375 1541.578125 2164.089844 1543.621094 C 2164.699219 1539.039063 2164.921875 1549.089844 2158.179688 1549.089844 C 2151.460938 1549.089844 2151.648438 1539.171875 2152.261719 1543.640625 C 2152.039063 1542.058594 2151.859375 1537.710938 2151.648438 1529.820313 C 2151.578125 1527.089844 2151.5 1523.890625 2151.421875 1520.308594 C 2151.308594 1515.71875 2151.191406 1510.421875 2151.039063 1504.691406 C 2150.261719 1475.191406 2148.75 1432.921875 2144.910156 1399.070313 C 2139.761719 1353.75 2130.449219 1323.730469 2110.390625 1289.640625 C 2090.21875 1255.371094 2059.179688 1216.941406 2009.101563 1179.390625 C 1958.691406 1141.601563 1889.539063 1105.070313 1856.191406 1096.390625 C 1850.378906 1094.871094 1845.898438 1094.28125 1842.539063 1094.28125 C 1834.769531 1094.28125 1834.738281 1096.960938 1834.738281 1098.351563 C 1834.738281 1101.5 1836.878906 1106.628906 1841.449219 1112.050781 C 1852.761719 1125.441406 1874.550781 1135.289063 1888.53125 1135.289063 C 1888.851563 1135.289063 1889.171875 1135.289063 1889.46875 1135.28125 C 1901.710938 1134.859375 1907.578125 1126.070313 1915.289063 1113.609375 L 1917.609375 1121.921875 C 1889.699219 1107.679688 1863.949219 1094.730469 1846.109375 1094.730469 C 1844.128906 1094.730469 1842.320313 1094.890625 1840.671875 1095.210938 C 1829.308594 1097.429688 1822.429688 1107.78125 1824.738281 1119.640625 C 1825.558594 1123.808594 1827.539063 1128.289063 1831.070313 1132.710938 C 1843.230469 1147.929688 1872.25 1161.460938 1902.910156 1175.570313 C 1908.71875 1178.25 1914.519531 1180.921875 1920.179688 1183.601563 C 1955.410156 1200.300781 1985.460938 1217.589844 2010.539063 1266.128906 C 2035.171875 1313.769531 2055.101563 1391.78125 2074.789063 1468.710938 L 2063.378906 1471.410156 C 2048.421875 1403.199219 2033.648438 1335.988281 2013 1291.449219 L 2013 1291.460938 C 1992.609375 1247.46875 1966.449219 1225.628906 1939.480469 1203.160156 L 1946.03125 1203.800781 C 1931.179688 1211.878906 1921.851563 1217.609375 1923.609375 1230.5 C 1925.75 1246.140625 1943.230469 1271.601563 1961.160156 1278.429688 C 1964.699219 1279.78125 1968.269531 1280.390625 1971.671875 1280.390625 C 1984.03125 1280.390625 1992.410156 1272.808594 1992.410156 1264.039063 C 1992.410156 1263.25 1992.339844 1262.410156 1992.210938 1261.550781 C 1989.761719 1245.660156 1964.570313 1221.300781 1944.570313 1214.328125 C 1940.679688 1212.980469 1937.21875 1212.390625 1934.289063 1212.390625 C 1926.5 1212.390625 1922.390625 1216.269531 1922.390625 1223.660156 C 1922.390625 1226.390625 1922.960938 1229.75 1924.371094 1233.75 C 1927.210938 1241.789063 1933.128906 1251.679688 1940.671875 1264.191406 C 1951.21875 1281.691406 1964.320313 1303.421875 1973.46875 1329.320313 C 1975.039063 1333.769531 1976.5 1338.359375 1977.808594 1343.070313 C 1991.980469 1394.121094 1988.359375 1459.359375 1984.878906 1523.191406 L 1984.878906 1522.96875 C 1983.441406 1606.351563 1982.058594 1688.25 1983.308594 1696.429688 C 1983.320313 1696.449219 1983.320313 1696.46875 1983.320313 1696.460938 L 1983.320313 1696.46875 C 1984 1700.210938 1983.898438 1692.269531 1977.800781 1692.269531 C 1972.171875 1692.269531 1971.539063 1699.410156 1972.429688 1696.039063 C 1973.660156 1691.351563 1976.28125 1648.78125 1976.28125 1609.550781 C 1976.28125 1604.101563 1976.230469 1598.730469 1976.121094 1593.589844 L 1976.121094 1593.601563 C 1975.089844 1546.570313 1968.980469 1516.980469 1962.789063 1487.058594 L 1973.320313 1489.261719 C 1940.429688 1535.808594 1907.308594 1582.679688 1869.21875 1625.339844 C 1831.191406 1667.921875 1787.019531 1707.730469 1720.46875 1710.121094 C 1718.328125 1710.191406 1716.148438 1710.230469 1713.96875 1710.230469 C 1649.300781 1710.230469 1566.789063 1677.089844 1522.148438 1640.441406 C 1485.429688 1610.289063 1474.238281 1577.738281 1465.160156 1551.410156 C 1462.648438 1544.128906 1460.359375 1537.5 1457.738281 1531.421875 C 1445.660156 1503.300781 1426.851563 1487.320313 1411.070313 1483.738281 C 1408.609375 1483.191406 1406.21875 1482.929688 1403.941406 1482.929688 C 1391.710938 1482.929688 1382.480469 1490.230469 1380.671875 1500.890625 C 1378.25 1515.140625 1387.851563 1536.570313 1399.070313 1560.890625 L 1397.558594 1558.890625 C 1415.089844 1573.851563 1429.210938 1585.359375 1436.191406 1585.359375 C 1436.789063 1585.359375 1437.039063 1585.25 1437.140625 1585.191406 C 1440 1583.621094 1443.171875 1567.121094 1433.351563 1549.328125 C 1432.589844 1547.949219 1431.769531 1546.621094 1430.878906 1545.339844 L 1430.878906 1545.351563 C 1419.859375 1529.398438 1398.289063 1520.371094 1374.261719 1510.539063 L 1382.210938 1503.898438 C 1388.03125 1531.589844 1393.910156 1559.601563 1397.078125 1587.839844 C 1397.578125 1592.289063 1398.011719 1596.71875 1398.429688 1601.089844 C 1398.851563 1605.441406 1399.269531 1609.710938 1399.738281 1613.941406 C 1401.839844 1632.671875 1405.039063 1649.46875 1414.109375 1663.390625 C 1425.898438 1681.511719 1448.019531 1695.539063 1480.679688 1716.058594 L 1480.679688 1716.070313 C 1485.03125 1718.789063 1489.5 1721.601563 1494.171875 1724.558594 C 1534.410156 1750.078125 1585.890625 1785.160156 1599.738281 1911.460938 C 1613.449219 2036.53125 1590.390625 2251.75 1531.359375 2465.980469 C 1472.308594 2680.320313 1377.160156 2893.988281 1282.238281 3107.15625 L 1271.929688 3101.640625 C 1330.878906 3008.339844 1387.730469 2917.8125 1383.640625 2849.78125 C 1379.621094 2782.742188 1315.800781 2736.089844 1248.070313 2687.148438 C 1247.441406 2686.710938 1246.921875 2686.140625 1246.511719 2685.480469 L 1246.511719 2685.488281 C 1207.121094 2621.800781 1169.640625 2561.929688 1088.25 2561.929688 C 1070.789063 2561.929688 1051.160156 2564.679688 1028.890625 2570.871094 C 912.3125 2603.300781 732.296875 2726.28125 725.585938 2744.210938 L 725.960938 2742.148438 L 725.585938 2744.210938 C 725.535156 2744.351563 725.894531 2743.550781 725.546875 2742.300781 C 724.605469 2738.921875 721.355469 2739.320313 722.707031 2739.320313 C 722.886719 2739.320313 723.171875 2739.300781 723.585938 2739.25 C 761.105469 2734.519531 1019.851563 2589.261719 1013.171875 2536.300781 C 1012.960938 2534.578125 1012.410156 2533.011719 1011.511719 2531.550781 C 1002.621094 2517.121094 960.574219 2510.191406 901.398438 2510.191406 C 788.570313 2510.191406 636.144531 2534.300781 624.695313 2541.449219 L 624.695313 2541.460938 C 624.609375 2541.511719 624.996094 2541.300781 625.441406 2540.738281 C 627.238281 2538.5 626.761719 2535.128906 624.640625 2533.429688 C 624.082031 2532.980469 623.652344 2532.859375 623.75 2532.890625 C 624.878906 2533.28125 629.328125 2533.738281 637.8125 2533.738281 C 707.179688 2533.738281 949.554688 2506.808594 976.625 2469.738281 C 980.554688 2464.359375 979.101563 2456.871094 963.179688 2445.238281 C 921.550781 2414.839844 813.511719 2382.589844 749.179688 2363.449219 C 729.566406 2357.621094 713.941406 2352.96875 706.054688 2350.058594 C 703.5 2349.121094 701.238281 2348.179688 699.753906 2347.21875 L 699.753906 2347.230469 C 700.628906 2347.78125 694.699219 2344.800781 696.695313 2339.390625 L 696.695313 2339.398438 C 698.195313 2335.328125 702.816406 2335.148438 702.410156 2335.199219 C 703.199219 2335.089844 704.027344 2335.070313 704.820313 2335.070313 C 727.390625 2335.070313 881.902344 2365.109375 1034.820313 2394.820313 C 1036.101563 2395.070313 1037.269531 2395.730469 1038.121094 2396.71875 C 1124.320313 2495.769531 1211.078125 2595.441406 1243.851563 2645.640625 C 1272.679688 2689.78125 1261.53125 2700.441406 1237.640625 2717.238281 C 1233.25 2720.320313 1228.570313 2723.621094 1223.640625 2727.570313 C 1194.210938 2751.207031 1155.898438 2798.648438 1130.699219 2830.929688 C 1128.449219 2833.808594 1126.410156 2836.441406 1124.328125 2839.109375 C 1122.46875 2841.507813 1120.558594 2843.96875 1118.789063 2846.230469 L 1118.789063 2846.234375 C 1100.539063 2869.613281 1086.101563 2886.988281 1048.710938 2922.121094 C 1038.910156 2931.324219 1027.648438 2941.65625 1015.429688 2952.859375 C 1001.148438 2965.949219 985.632813 2980.175781 970.027344 2994.839844 C 937.550781 3025.359375 904.707031 3057.761719 881.085938 3086.390625 C 870.242188 3099.53125 861.304688 3111.929688 853.402344 3122.886719 L 853.402344 3122.890625 C 847.300781 3131.351563 841.734375 3139.078125 836.441406 3145.492188 C 826.847656 3157.121094 816.753906 3166.265625 803.871094 3166.265625 L 803.871094 3166.269531 C 796 3166.265625 788.140625 3162.835938 779.871094 3156.5625 C 742.773438 3128.410156 682.960938 3031.113281 615.746094 2889.632813 C 548.398438 2747.871094 472.296875 2558.941406 469.9375 2420.339844 C 467.558594 2280.261719 540.359375 2192.019531 670.722656 2129.390625 C 800.46875 2067.050781 988.316406 2029.488281 1175.050781 1992.109375 C 1176.859375 1991.75 1178.738281 1992.261719 1180.121094 1993.5 C 1252.039063 2058.28125 1323.359375 2122.5 1385.03125 2160.289063 C 1446.351563 2197.871094 1498.199219 2209.320313 1550.839844 2220.929688 L 1547.261719 2232.039063 C 1495.109375 2209.570313 1442.621094 2186.960938 1379.769531 2148.351563 C 1317.039063 2109.820313 1244.019531 2055.378906 1171.308594 2001.171875 C 1170.050781 2000.230469 1169.21875 1998.828125 1169.011719 1997.269531 C 1168.789063 1995.710938 1169.210938 1994.140625 1170.179688 1992.890625 C 1194.089844 1961.878906 1217.371094 1931.640625 1230.621094 1900.628906 C 1243.820313 1869.738281 1247.160156 1837.808594 1250.570313 1804.871094 C 1250.820313 1802.488281 1252.480469 1800.5 1254.78125 1799.839844 C 1257.078125 1799.179688 1259.550781 1799.980469 1261.019531 1801.871094 L 1261.28125 1802.191406 C 1306.640625 1860.28125 1351.519531 1917.660156 1404.03125 1960.078125 C 1456.589844 2002.550781 1517.019531 2030.199219 1578.230469 2058.179688 L 1572.738281 2068.519531 L 1572.101563 2068.121094 C 1501.648438 2025.121094 1430.941406 1981.960938 1376.808594 1942.121094 C 1322.179688 1901.910156 1284.03125 1864.769531 1249.628906 1787.871094 C 1215.5 1711.589844 1184.960938 1595.949219 1154.609375 1481.070313 L 1160.789063 1485.410156 C 1153.570313 1486.039063 1146.058594 1486.710938 1138.589844 1486.710938 C 1121.050781 1486.710938 1103.191406 1483.039063 1087.25 1466.808594 C 1065.5 1444.628906 1047.75 1398.878906 1032.261719 1358.910156 L 1032.261719 1358.921875 C 1016.679688 1318.71875 1002.058594 1280.839844 1002.789063 1245.230469 C 1003.488281 1210.480469 1019.148438 1175.238281 1040.199219 1167.390625 C 1043.300781 1166.230469 1046.441406 1165.699219 1049.609375 1165.699219 C 1068.03125 1165.699219 1086.769531 1184.339844 1102.621094 1199.609375 L 1093.480469 1206.769531 C 1073.628906 1172.511719 1053.320313 1137.53125 1042.800781 1087.640625 C 1032.328125 1037.980469 1031.578125 973.71875 1041.140625 919.980469 C 1050.71875 866.101563 1070.660156 822.871094 1090.25 780.328125 L 1089.730469 783.148438 C 1084.140625 694.089844 1078.238281 602.371094 1174.480469 516.730469 C 1269.550781 432.128906 1464.449219 353.429688 1618.570313 350.308594 C 1621.808594 350.238281 1625.011719 350.210938 1628.210938 350.210938 C 1778.058594 350.210938 1888.089844 421.179688 1952.929688 468.949219 L 1952.929688 468.960938 C 2019.339844 517.890625 2039.519531 543.390625 2059.589844 568.859375 L 2054.089844 566.691406 C 2116.941406 557.011719 2180.128906 547.269531 2269.53125 547.269531 C 2351.898438 547.269531 2456.390625 555.53125 2603.429688 579.589844 C 2909.058594 629.609375 3402.621094 748.519531 3582.640625 926.960938 C 3765.101563 1107.800781 3626.328125 1347.539063 3484.351563 1554 C 3341.308594 1761.980469 3190.019531 1942.679688 3038.921875 2123.140625 C 3037.921875 2124.339844 3036.480469 2125.089844 3034.929688 2125.21875 C 3033.378906 2125.351563 3031.828125 2124.859375 3030.640625 2123.851563 L 3030.640625 2123.859375 C 2936.96875 2044.570313 2841.878906 1964.230469 2796.511719 1874.359375 L 2796.511719 1874.371094 C 2750.988281 1784.191406 2755.761719 1685 2760.308594 1587.679688 C 2760.371094 1586.398438 2760.851563 1585.179688 2761.671875 1584.191406 C 2819.910156 1514.648438 2878.269531 1444.960938 2931.570313 1387.199219 C 2984.898438 1329.410156 3033.140625 1283.589844 3081.238281 1237.910156 C 3083.339844 1235.921875 3086.570313 1235.75 3088.859375 1237.511719 C 3138.210938 1275.519531 3186.46875 1312.621094 3273.730469 1318.660156 C 3283.171875 1319.308594 3293.101563 1319.601563 3303.320313 1319.601563 C 3355.851563 1319.601563 3415.289063 1311.921875 3454.980469 1306.78125 L 3454.980469 1306.789063 C 3474.308594 1304.28125 3489.511719 1302.300781 3496.429688 1302.300781 C 3497.578125 1302.300781 3498.800781 1302.351563 3499.890625 1302.539063 C 3500.421875 1302.628906 3501.140625 1302.800781 3501.898438 1303.121094 C 3503.789063 1303.929688 3507.320313 1306.960938 3505.371094 1311.511719 C 3504.609375 1313.289063 3503.210938 1314.328125 3502.671875 1314.71875 C 3493.660156 1321.25 3434.921875 1336.539063 3366.03125 1336.539063 C 3340.648438 1336.539063 3313.601563 1334.46875 3286.730469 1329.070313 C 3204.578125 1312.558594 3124.988281 1264.941406 3027.640625 1206.789063 C 2995.050781 1187.328125 2960.421875 1166.648438 2922.898438 1145.429688 C 2772.878906 1060.570313 2576.53125 967.089844 2466.28125 922.96875 C 2399.058594 896.070313 2364.558594 887.828125 2335.570313 887.828125 L 2335.570313 887.839844 C 2317.039063 887.828125 2300.519531 891.191406 2278.519531 895.679688 L 2278.089844 895.769531 C 2221.488281 907.328125 2132.761719 925.28125 2044.019531 943.238281 L 2048.71875 937.351563 C 2049.96875 986.5 2051.640625 1039.558594 2032.339844 1065.699219 C 2021.839844 1079.921875 2005.710938 1085.921875 1988.878906 1085.921875 C 1972.96875 1085.921875 1956.089844 1080.609375 1941.46875 1071.519531 C 1911.25 1052.710938 1890.730469 1017.769531 1879.5 970.03125 C 1868.300781 922.421875 1866.160156 861.140625 1864.011719 800.710938 L 1875.699219 801.121094 C 1867.890625 874.910156 1860.269531 947.449219 1866.480469 992.289063 C 1872.601563 1036.328125 1892.03125 1052.558594 1902.808594 1057.921875 C 1906.378906 1059.699219 1908.761719 1060.171875 1910.320313 1060.171875 C 1913.199219 1060.171875 1914.929688 1058.660156 1918.519531 1054.769531 C 1920.449219 1052.679688 1923.601563 1052.269531 1925.988281 1053.800781 C 1928.378906 1055.328125 1929.339844 1058.359375 1928.25 1060.980469 C 1921.230469 1077.929688 1911.96875 1102.550781 1895.371094 1103.941406 C 1894.851563 1103.988281 1894.328125 1104.011719 1893.820313 1104.011719 C 1887.878906 1104.011719 1881.621094 1101.121094 1876.25 1098.761719 C 1868.171875 1095.191406 1859.648438 1091.5 1849.25 1091.5 C 1846.890625 1091.5 1844.421875 1091.691406 1841.828125 1092.128906 C 1835.421875 1093.21875 1828.21875 1095.800781 1820.089844 1098.730469 L 1820.089844 1098.738281 C 1811.671875 1101.769531 1802.351563 1105.160156 1793.199219 1106.710938 C 1789.929688 1107.269531 1786.628906 1107.601563 1783.320313 1107.601563 C 1772.320313 1107.601563 1761.71875 1103.871094 1753.039063 1093.371094 L 1753.039063 1093.378906 C 1729.160156 1064.460938 1720.230469 982.359375 1722.640625 920.480469 C 1725.078125 857.429688 1739.359375 812.140625 1753.421875 767.480469 L 1763.699219 772.761719 C 1717.019531 834.941406 1671.46875 895.769531 1657.46875 939.019531 C 1644 980.609375 1660.199219 1005.5 1677.75 1023.828125 C 1684.191406 1030.558594 1690.761719 1036.320313 1696.789063 1041.601563 C 1701.570313 1045.789063 1706.140625 1049.789063 1709.808594 1053.621094 C 1714.101563 1058.089844 1717.960938 1063.128906 1719.089844 1068.921875 C 1722.480469 1086.390625 1701.320313 1099.5 1675.640625 1106.710938 C 1664.871094 1109.738281 1652.109375 1112.121094 1638.21875 1112.121094 C 1616.121094 1112.121094 1591.308594 1106.078125 1567.398438 1087.308594 C 1529.070313 1057.21875 1492.828125 994.019531 1496.710938 934.5 C 1500.578125 875.019531 1544.660156 820.410156 1586.820313 767.820313 C 1588.808594 765.339844 1592.421875 764.898438 1594.949219 766.828125 C 1597.480469 768.769531 1598 772.371094 1596.128906 774.941406 C 1577.511719 800.511719 1557.910156 827.589844 1534.929688 841.429688 C 1511.589844 855.46875 1485.308594 855.640625 1460.960938 855.910156 L 1466.238281 852.449219 C 1447.390625 894.398438 1429.21875 935.011719 1427.300781 974.359375 C 1426.441406 991.871094 1428.789063 1009.289063 1431.039063 1025.75 C 1432.878906 1039.339844 1434.710938 1052.589844 1434.148438 1063.980469 C 1433.878906 1069.5 1433.050781 1074.820313 1431.28125 1079.699219 C 1424.289063 1099.058594 1404.21875 1108.191406 1386.558594 1108.191406 C 1378.871094 1108.191406 1371.191406 1106.5 1364.730469 1102.851563 C 1343.589844 1090.941406 1338.78125 1059.828125 1334.320313 1033.738281 C 1333.808594 1030.761719 1335.648438 1027.878906 1338.570313 1027.089844 C 1350 1024 1362.460938 1020.570313 1373.71875 1020.570313 C 1382.941406 1020.570313 1392 1022.851563 1399.289063 1029.871094 C 1414.679688 1044.660156 1419.75 1078.359375 1414.859375 1111.398438 C 1409.890625 1145.011719 1394.390625 1180.039063 1379.359375 1214.109375 C 1378.660156 1215.71875 1377.269531 1216.929688 1375.570313 1217.390625 L 1375.570313 1217.398438 L 1375.460938 1217.429688 C 1327.339844 1230.820313 1282.859375 1243.558594 1264.578125 1269.269531 C 1249.859375 1289.96875 1251.558594 1320.070313 1254.179688 1359.839844 C 1254.75 1368.488281 1255.339844 1377.53125 1255.761719 1386.851563 C 1256.179688 1396.03125 1256.421875 1405.46875 1256.660156 1414.929688 C 1256.898438 1424.589844 1257.148438 1434.269531 1257.578125 1443.851563 C 1259.101563 1477.628906 1262.898438 1508.75 1275.941406 1530.53125 C 1296.28125 1564.480469 1340.121094 1577.460938 1387.421875 1591.121094 L 1387.441406 1591.121094 L 1522.511719 1630.820313 C 1522.828125 1630.910156 1523.140625 1631.039063 1523.441406 1631.191406 C 1585.910156 1661.960938 1646.78125 1691.828125 1709.128906 1691.828125 C 1730.019531 1691.828125 1751.070313 1688.460938 1772.410156 1680.609375 C 1857.851563 1649.128906 1948.191406 1545.53125 1965.628906 1442.039063 C 1982.96875 1339.078125 1928.109375 1235.359375 1850.160156 1178.269531 C 1798.410156 1140.371094 1736.539063 1123.109375 1677.871094 1123.109375 C 1648.441406 1123.109375 1619.878906 1127.449219 1593.890625 1135.660156 C 1516.089844 1160.25 1460.761719 1219.660156 1438.058594 1281.351563 L 1438.058594 1281.359375 C 1415.410156 1342.921875 1425.089844 1407.308594 1442.148438 1459.558594 C 1459.171875 1511.660156 1483.269531 1550.949219 1507.730469 1590.789063 L 1497.320313 1596.109375 C 1467.339844 1523.949219 1436.691406 1450.398438 1438.011719 1373.320313 C 1439.339844 1296.320313 1472.578125 1215.351563 1537.191406 1172.390625 C 1579.128906 1144.5 1633.691406 1133.058594 1685.769531 1133.058594 C 1713.859375 1133.058594 1741.398438 1136.390625 1766.101563 1142.351563 L 1766.101563 1142.359375 C 1837.019531 1159.488281 1884.238281 1198.371094 1919.988281 1257.558594 C 1955.558594 1316.46875 1980.46875 1396.691406 1946.070313 1482.480469 C 1912.058594 1567.339844 1819.78125 1657.519531 1738.230469 1679.839844 C 1723.53125 1683.859375 1709.191406 1685.679688 1695.160156 1685.679688 C 1630.820313 1685.679688 1573.441406 1647.339844 1517.988281 1610.488281 C 1516.609375 1609.570313 1515.679688 1608.121094 1515.441406 1606.488281 C 1515.191406 1604.851563 1515.640625 1603.191406 1516.691406 1601.910156 L 1599.128906 1500.679688 C 1600.761719 1498.679688 1603.5 1497.980469 1605.878906 1498.941406 L 1605.878906 1498.949219 C 1647.679688 1515.941406 1687.96875 1532.21875 1723.921875 1532.21875 C 1741.808594 1532.21875 1758.410156 1528.160156 1773.480469 1518.171875 L 1773.480469 1518.179688 C 1819.609375 1487.609375 1852.851563 1401.039063 1829.738281 1338.589844 C 1809.5 1283.898438 1745.359375 1246.53125 1687.71875 1246.53125 C 1680.089844 1246.53125 1672.621094 1247.191406 1665.410156 1248.539063 C 1604.058594 1260.019531 1559.128906 1322.398438 1551.480469 1373.539063 C 1543.980469 1423.71875 1572.679688 1462.820313 1603.480469 1504.308594 L 1593.359375 1510.058594 C 1576.691406 1470.179688 1559.109375 1428.46875 1566.480469 1382.441406 C 1573.808594 1336.699219 1605.890625 1286.328125 1659.550781 1270.511719 C 1671.679688 1266.929688 1684.820313 1265.160156 1698.191406 1265.160156 C 1743.5 1265.160156 1793.21875 1285.660156 1815.730469 1328.359375 L 1815.730469 1328.371094 C 1844.320313 1382.589844 1827.78125 1471.480469 1786.019531 1507.261719 C 1768.429688 1522.339844 1746.769531 1527.699219 1723.441406 1527.699219 L 1723.441406 1527.710938 C 1690.109375 1527.699219 1652.121094 1516.710938 1615.238281 1506.089844 C 1613.488281 1505.589844 1612.078125 1504.308594 1611.410156 1502.621094 C 1610.738281 1500.929688 1610.890625 1499.019531 1611.820313 1497.460938 L 1667.269531 1404.25 L 1666.46875 1406.828125 L 1666.46875 1406.75 C 1667.898438 1386.730469 1669.039063 1359.070313 1689.390625 1352 C 1692.878906 1350.789063 1696.730469 1350.269531 1700.621094 1350.269531 C 1718.191406 1350.269531 1742.898438 1361.398438 1748.230469 1381.480469 C 1754.441406 1404.898438 1732.449219 1436.191406 1713.671875 1442.910156 C 1711.019531 1443.859375 1708.308594 1444.390625 1705.441406 1444.390625 C 1692.589844 1444.390625 1678.441406 1433.179688 1651.789063 1412.859375 C 1640.140625 1403.980469 1625.769531 1393.03125 1607.578125 1379.75 C 1602.378906 1375.949219 1596.878906 1371.960938 1591.089844 1367.789063 C 1584.75 1363.191406 1578.101563 1358.378906 1571.191406 1353.339844 C 1499.480469 1300.96875 1400.390625 1223.820313 1356.660156 1127.230469 L 1356.660156 1127.238281 C 1304.859375 1012.828125 1331.199219 872.578125 1354.628906 806.640625 C 1374.320313 751.21875 1393.300781 745.398438 1427.339844 736.019531 C 1434.808594 733.960938 1442.941406 731.71875 1452.058594 728.640625 L 1452.058594 728.648438 C 1470.148438 722.550781 1492.230469 713.140625 1518.089844 702.109375 C 1553.339844 687.089844 1595.269531 669.199219 1642.46875 653.289063 C 1654.691406 649.171875 1667.269531 645.179688 1680.179688 641.398438 C 1779.320313 612.410156 1897.730469 596.140625 2015.570313 579.929688 C 2018.648438 579.511719 2021.53125 581.570313 2022.128906 584.621094 C 2022.71875 587.671875 2020.828125 590.660156 2017.820313 591.421875 L 2017.820313 591.429688 C 1890.910156 623.78125 1772.769531 654.691406 1766.53125 669.519531 L 1766.5 669.570313 L 1766.691406 669.089844 L 1766.53125 669.519531 C 1766.539063 669.5 1766.648438 669.199219 1766.589844 668.730469 C 1766.53125 668.320313 1766.378906 668.089844 1766.371094 668.078125 C 1770.328125 673.710938 1802.210938 678.730469 1848.199219 685.109375 C 1889.039063 690.78125 1936.96875 697.410156 1971.691406 708.660156 L 1971.691406 708.671875 C 2044.121094 732.148438 2059.429688 775.75 2067.441406 798.910156 C 2067.789063 799.910156 2068.121094 800.871094 2068.429688 801.769531 C 2070.609375 807.949219 2072.371094 812.179688 2074.019531 816.160156 C 2075.429688 819.550781 2076.800781 822.828125 2078.230469 826.898438 C 2080.820313 834.269531 2083.570313 844.019531 2087.480469 862.019531 C 2096.101563 901.570313 2110.628906 982.03125 2115.429688 1034.238281 C 2120.269531 1086.871094 2115.25 1111.019531 2110.230469 1134.921875 L 2101.871094 1128.480469 C 2121.210938 1118.769531 2142.519531 1107.910156 2160.351563 1107.910156 C 2170.210938 1107.910156 2179.359375 1111.191406 2186.488281 1119.578125 C 2205.378906 1141.808594 2208.621094 1199.558594 2202.101563 1240.738281 L 2202.101563 1240.75 C 2197.449219 1270.179688 2187.660156 1292.621094 2178.820313 1312.941406 C 2174.921875 1321.910156 2171.238281 1330.371094 2168.160156 1338.960938 L 2168.160156 1338.96875 C 2158.171875 1366.808594 2154.300781 1396.511719 2156.300781 1451 C 2156.539063 1457.621094 2156.871094 1464.570313 2157.21875 1471.898438 C 2157.589844 1479.910156 2157.988281 1488.308594 2158.308594 1497.070313 C 2160.109375 1546.289063 2159.550781 1606.511719 2139.511719 1667.679688 C 2112.75 1749.371094 2051.371094 1832.199219 1990.839844 1913.980469 L 1984.039063 1905.011719 C 2023.660156 1889.910156 2063.25 1874.820313 2107.109375 1857.621094 C 2150.96875 1840.429688 2199.128906 1821.101563 2247.289063 1801.769531 C 2249.75 1800.78125 2252.578125 1801.578125 2254.171875 1803.710938 C 2255.761719 1805.851563 2255.710938 1808.789063 2254.050781 1810.871094 C 2162.320313 1925.800781 2070.980469 2040.050781 2063.480469 2334.300781 C 2055.960938 2629.640625 2132.910156 3105.660156 2150.179688 3203.675781 C 2152.261719 3215.503906 2153.378906 3221.226563 2153.75 3222.386719 C 2154.890625 3225.9375 2153.859375 3218.75 2148.390625 3218.75 C 2141.039063 3218.75 2142.480469 3229.347656 2142.621094 3223.964844 L 2148.480469 3224.125 L 2142.621094 3223.964844 C 2142.621094 3223.96875 2142.621094 3223.941406 2142.621094 3223.914063 L 2142.621094 3223.917969 C 2142.621094 3221.09375 2141.121094 3207.175781 2138.570313 3183.710938 C 2129.949219 3104.386719 2110.21875 2922.796875 2104.671875 2740.898438 C 2096.089844 2459.28125 2121.5 2177.070313 2126.699219 2137.820313 C 2126.96875 2135.769531 2127.238281 2134 2127.519531 2132.878906 C 2126.789063 2135.738281 2127.578125 2127.949219 2133.449219 2127.949219 C 2139.878906 2127.949219 2139.988281 2136.78125 2139.429688 2133.398438 L 2139.429688 2133.410156 C 2139.769531 2135.398438 2139.921875 2140.570313 2140.160156 2147.53125 C 2141.78125 2195.679688 2147.441406 2364.140625 2211.558594 2571.691406 C 2294.800781 2841.160156 2476.25 3175.800781 2508.378906 3211.921875 C 2509.609375 3213.300781 2510.25 3213.8125 2510.410156 3213.914063 L 2510.410156 3213.917969 C 2510.589844 3214.027344 2509.871094 3213.484375 2508.558594 3213.484375 C 2504.050781 3213.484375 2503.78125 3218 2503.878906 3217.070313 L 2509.710938 3217.667969 L 2503.878906 3217.070313 C 2503.878906 3217.0625 2503.878906 3217.007813 2503.878906 3216.871094 L 2503.878906 3216.875 C 2503.878906 3204.382813 2476.421875 3134.402344 2438.300781 3037.769531 C 2405.640625 2954.960938 2365.890625 2854.214844 2331.441406 2757.761719 L 2331.441406 2757.765625 C 2247.191406 2521.910156 2194.570313 2311.75 2175.871094 2150.480469 C 2157.210938 1989.609375 2172.03125 1875.46875 2237.140625 1806.320313 C 2288.761719 1751.5 2371.289063 1726 2451.050781 1701.191406 C 2471.480469 1694.839844 2491.769531 1688.53125 2511.5 1681.769531 C 2608.699219 1648.488281 2692.539063 1604.289063 2776.820313 1559.839844 C 2778.710938 1558.851563 2780.988281 1558.960938 2782.78125 1560.128906 C 2784.558594 1561.308594 2785.570313 1563.359375 2785.398438 1565.488281 C 2778.28125 1655.851563 2771.410156 1744.460938 2815.480469 1834.441406 C 2859.789063 1924.929688 2955.710938 2017.210938 3052.839844 2110.550781 C 3054.921875 2112.550781 3055.230469 2115.769531 3053.589844 2118.140625 C 3037.769531 2140.820313 3021.140625 2164.800781 3002.269531 2178.300781 C 2995.109375 2183.410156 2987.710938 2186.96875 2979.640625 2190.871094 C 2968.148438 2196.410156 2954.511719 2202.988281 2935.78125 2216.390625 C 2932.429688 2218.78125 2928.898438 2221.398438 2925.199219 2224.269531 C 2886.03125 2254.660156 2826.878906 2313.148438 2778.519531 2388.140625 C 2730.308594 2462.859375 2692.699219 2554.121094 2677.160156 2707.839844 L 2677.160156 2707.851563 C 2661.589844 2861.929688 2668.210938 3078.425781 2674.859375 3295.527344 L 2668.96875 3289.84375 L 3619.828125 3284.578125 C 3623.070313 3284.5625 3625.699219 3287.171875 3625.71875 3290.40625 C 3625.738281 3293.644531 3623.128906 3296.285156 3619.890625 3296.304688 L 2669.03125 3301.570313 C 2665.851563 3301.589844 2663.238281 3299.066406 2663.140625 3295.886719 C 2656.5 3079.097656 2649.828125 2861.699219 2665.5 2706.671875 C 2681.199219 2551.269531 2719.359375 2458.199219 2768.660156 2381.78125 C 2817.789063 2305.621094 2877.859375 2246.160156 2918.019531 2215.011719 C 2921.839844 2212.039063 2925.46875 2209.339844 2928.960938 2206.851563 C 2948.519531 2192.871094 2962.878906 2185.929688 2974.539063 2180.308594 C 2982.761719 2176.339844 2989.25 2173.191406 2995.449219 2168.761719 C 3012.320313 2156.699219 3027.738281 2134.710938 3043.96875 2111.429688 L 3044.71875 2119.011719 C 2948.148438 2026.210938 2850.378906 1932.371094 2804.949219 1839.601563 C 2759.28125 1746.339844 2766.621094 1654.578125 2773.710938 1564.570313 L 2782.289063 1570.210938 C 2698.101563 1614.609375 2613.488281 1659.25 2515.308594 1692.871094 C 2495.390625 1699.691406 2474.941406 1706.050781 2454.53125 1712.390625 C 2373.890625 1737.46875 2294.761719 1762.230469 2245.679688 1814.359375 C 2184.460938 1879.371094 2168.890625 1988.601563 2187.511719 2149.121094 C 2206.089844 2309.230469 2258.421875 2518.480469 2342.480469 2753.820313 C 2376.859375 2850.058594 2416.53125 2950.632813 2449.210938 3033.464844 L 2449.210938 3033.46875 C 2486.449219 3127.875 2515.609375 3201.429688 2515.609375 3216.871094 L 2515.609375 3216.875 C 2515.609375 3217.324219 2515.589844 3217.785156 2515.539063 3218.261719 L 2509.710938 3217.667969 L 2515.539063 3218.265625 C 2515.410156 3219.554688 2514.378906 3225.207031 2508.558594 3225.207031 L 2508.558594 3225.210938 C 2506.539063 3225.207031 2504.960938 3224.34375 2504.089844 3223.789063 C 2502.539063 3222.796875 2501.03125 3221.300781 2499.621094 3219.714844 C 2465.839844 3181.746094 2283.789063 2845.234375 2200.351563 2575.148438 C 2135.789063 2366.128906 2130.070313 2196.449219 2128.441406 2147.929688 C 2128.179688 2140.269531 2128.03125 2136.328125 2127.871094 2135.320313 C 2127.179688 2131.210938 2127.160156 2139.679688 2133.449219 2139.679688 C 2139.171875 2139.679688 2139.800781 2132.230469 2138.878906 2135.800781 L 2138.878906 2135.808594 C 2138.800781 2136.109375 2138.621094 2137.140625 2138.320313 2139.359375 C 2133.199219 2178.019531 2107.820313 2459.609375 2116.390625 2740.539063 C 2121.929688 2921.933594 2141.609375 3103.117188 2150.230469 3182.445313 C 2152.710938 3205.257813 2154.351563 3220.25 2154.351563 3223.914063 L 2154.351563 3223.917969 C 2154.351563 3224.023438 2154.339844 3224.167969 2154.339844 3224.285156 L 2148.480469 3224.125 L 2154.339844 3224.28125 C 2154.46875 3219.546875 2155.839844 3230.472656 2148.390625 3230.472656 L 2148.390625 3230.476563 C 2142.808594 3230.472656 2141.640625 3222.992188 2142.578125 3225.953125 L 2142.578125 3225.949219 C 2141.898438 3223.816406 2140.621094 3216.964844 2138.628906 3205.710938 C 2121.390625 3107.808594 2044.210938 2630.679688 2051.769531 2334 C 2059.351563 2036.210938 2152.320313 1919.539063 2244.890625 1803.558594 L 2251.648438 1812.648438 C 2203.5 1831.980469 2155.300781 1851.320313 2111.390625 1868.539063 C 2067.480469 1885.761719 2027.820313 1900.871094 1988.21875 1915.96875 C 1985.789063 1916.890625 1983.03125 1916.109375 1981.460938 1914.03125 C 1979.890625 1911.960938 1979.871094 1909.089844 1981.421875 1907 C 2042.300781 1824.75 2102.320313 1743.539063 2128.359375 1664.03125 C 2147.738281 1604.890625 2148.378906 1546.371094 2146.589844 1497.5 C 2146.269531 1488.820313 2145.878906 1480.46875 2145.5 1472.449219 C 2145.160156 1465.140625 2144.828125 1458.121094 2144.578125 1451.429688 C 2142.558594 1396.210938 2146.429688 1364.839844 2157.128906 1335.011719 C 2160.359375 1325.988281 2164.199219 1317.171875 2168.070313 1308.269531 C 2176.910156 1287.929688 2186.128906 1266.710938 2190.519531 1238.910156 C 2197.039063 1197.71875 2192.699219 1145 2177.558594 1127.171875 C 2173 1121.808594 2167.339844 1119.628906 2160.351563 1119.628906 L 2160.351563 1119.640625 C 2145.949219 1119.628906 2127.519531 1128.71875 2107.128906 1138.960938 C 2105.109375 1139.96875 2102.699219 1139.738281 2100.921875 1138.359375 C 2099.140625 1136.988281 2098.300781 1134.71875 2098.761719 1132.519531 C 2103.621094 1109.351563 2108.460938 1086.429688 2103.761719 1035.308594 L 2103.761719 1035.320313 C 2099.019531 983.769531 2084.589844 903.820313 2076.03125 864.519531 C 2072.160156 846.730469 2069.53125 837.511719 2067.171875 830.789063 C 2065.859375 827.070313 2064.609375 824.058594 2063.199219 820.660156 C 2061.519531 816.640625 2059.660156 812.160156 2057.378906 805.660156 C 2057.050781 804.75 2056.699219 803.71875 2056.359375 802.738281 C 2048.910156 781.191406 2035.480469 741.679688 1968.070313 719.820313 C 1934.558594 708.949219 1887.789063 702.441406 1846.589844 696.730469 C 1805.519531 691.03125 1764.609375 685.949219 1756.78125 674.820313 C 1755.890625 673.550781 1755.191406 672.019531 1754.960938 670.261719 C 1754.710938 668.339844 1755.058594 666.539063 1755.71875 664.96875 L 1755.558594 665.390625 L 1755.75 664.910156 L 1755.71875 664.960938 C 1764.96875 643.011719 1894.339844 610.808594 2014.921875 580.058594 L 2017.171875 591.550781 C 1899.089844 607.78125 1781.609375 623.949219 1683.46875 652.660156 C 1670.730469 656.378906 1658.300781 660.320313 1646.210938 664.398438 C 1599.511719 680.148438 1557.960938 697.859375 1522.691406 712.898438 C 1496.980469 723.859375 1474.421875 733.480469 1455.800781 739.761719 C 1446.339844 742.949219 1437.910156 745.269531 1430.449219 747.320313 C 1399.140625 755.949219 1383.78125 759.601563 1365.679688 810.570313 C 1342.671875 875.320313 1317.371094 1012.039063 1367.339844 1122.398438 C 1409.621094 1215.78125 1506.109375 1291.289063 1578.101563 1343.871094 C 1584.980469 1348.890625 1591.628906 1353.691406 1597.960938 1358.289063 C 1603.738281 1362.460938 1609.28125 1366.46875 1614.5 1370.28125 C 1632.78125 1383.628906 1647.238281 1394.648438 1658.898438 1403.539063 C 1687.761719 1425.53125 1697.679688 1432.660156 1705.441406 1432.660156 C 1706.808594 1432.660156 1708.179688 1432.421875 1709.71875 1431.871094 C 1724.050781 1426.738281 1741.21875 1400.789063 1736.898438 1384.480469 L 1736.898438 1384.488281 C 1733.511719 1371.710938 1715.5 1361.988281 1700.621094 1361.988281 L 1700.621094 1362 C 1697.71875 1361.988281 1695.230469 1362.390625 1693.238281 1363.078125 C 1681.929688 1367 1679.890625 1383.449219 1678.160156 1407.578125 L 1678.160156 1407.671875 C 1678.089844 1408.578125 1677.820313 1409.460938 1677.351563 1410.25 L 1621.898438 1503.460938 L 1618.480469 1494.828125 C 1655.859375 1505.589844 1692.109375 1515.980469 1723.441406 1515.980469 C 1744.988281 1515.980469 1763.578125 1511.039063 1778.390625 1498.359375 C 1815.730469 1466.371094 1831.570313 1383.519531 1805.359375 1333.828125 C 1785.5 1296.160156 1740.679688 1276.890625 1698.191406 1276.890625 C 1685.828125 1276.890625 1673.820313 1278.53125 1662.871094 1281.761719 C 1614.621094 1295.980469 1584.871094 1341.789063 1578.058594 1384.289063 C 1571.300781 1426.5 1587.28125 1465.101563 1604.179688 1505.539063 C 1605.320313 1508.269531 1604.25 1511.429688 1601.671875 1512.890625 C 1599.089844 1514.359375 1595.828125 1513.671875 1594.058594 1511.289063 L 1594.058594 1511.300781 C 1563.859375 1470.621094 1531.558594 1427.570313 1539.890625 1371.808594 C 1548.078125 1317 1595.828125 1249.640625 1663.25 1237.011719 C 1671.21875 1235.519531 1679.421875 1234.808594 1687.71875 1234.808594 C 1749.320313 1234.808594 1818.488281 1274.410156 1840.730469 1334.53125 C 1865.789063 1402.238281 1830.46875 1494.46875 1779.960938 1527.949219 C 1762.628906 1539.429688 1743.679688 1543.941406 1723.921875 1543.941406 C 1685.199219 1543.941406 1642.589844 1526.519531 1601.46875 1509.808594 L 1608.21875 1508.078125 L 1525.78125 1609.308594 L 1524.480469 1600.730469 C 1580.710938 1638.089844 1635.03125 1673.960938 1695.160156 1673.960938 C 1708.160156 1673.960938 1721.460938 1672.269531 1735.140625 1668.53125 C 1812.570313 1647.339844 1902.300781 1560.160156 1935.191406 1478.109375 C 1967.71875 1396.988281 1944.449219 1320.75 1909.949219 1263.621094 C 1875.628906 1206.789063 1830.878906 1170.070313 1763.339844 1153.75 C 1739.578125 1148.011719 1712.96875 1144.78125 1685.769531 1144.78125 L 1685.769531 1144.789063 C 1635.140625 1144.78125 1583.089844 1155.941406 1543.679688 1182.148438 C 1483.128906 1222.410156 1451.011719 1299.230469 1449.730469 1373.519531 C 1448.460938 1447.730469 1477.960938 1518.96875 1508.148438 1591.609375 C 1509.320313 1594.429688 1508.128906 1597.691406 1505.398438 1599.078125 C 1502.679688 1600.46875 1499.339844 1599.53125 1497.738281 1596.929688 C 1473.300781 1557.128906 1448.5 1516.78125 1431 1463.191406 C 1413.558594 1409.75 1403.109375 1342.390625 1427.058594 1277.308594 C 1450.960938 1212.351563 1508.960938 1150.199219 1590.359375 1124.480469 C 1617.558594 1115.890625 1647.308594 1111.378906 1677.871094 1111.378906 C 1738.761719 1111.378906 1803.128906 1129.289063 1857.078125 1168.808594 C 1937.871094 1227.980469 1995.410156 1335.820313 1977.191406 1443.980469 C 1959.058594 1551.609375 1865.859375 1658.679688 1776.460938 1691.609375 C 1753.75 1699.96875 1731.320313 1703.558594 1709.128906 1703.558594 C 1643.539063 1703.558594 1580.109375 1672.179688 1518.269531 1641.699219 L 1519.199219 1642.070313 L 1384.140625 1602.371094 L 1384.160156 1602.378906 C 1338.351563 1589.160156 1289.070313 1575.261719 1265.890625 1536.550781 L 1265.890625 1536.558594 C 1251.148438 1511.949219 1247.378906 1478.039063 1245.871094 1444.378906 C 1245.429688 1434.671875 1245.179688 1424.871094 1244.941406 1415.230469 C 1244.691406 1405.75 1244.460938 1396.429688 1244.050781 1387.378906 C 1243.640625 1378.191406 1243.050781 1369.28125 1242.480469 1360.609375 C 1239.960938 1322.441406 1237.351563 1287.320313 1255.019531 1262.46875 L 1255.019531 1262.480469 C 1276.300781 1232.558594 1326.109375 1219 1372.320313 1206.128906 L 1372.429688 1206.101563 L 1368.640625 1209.378906 C 1383.839844 1174.921875 1398.570313 1141.421875 1403.261719 1109.679688 L 1403.261719 1109.691406 C 1408.039063 1077.378906 1402.191406 1048.921875 1391.160156 1038.320313 C 1386.730469 1034.050781 1380.988281 1032.300781 1373.71875 1032.300781 C 1364.339844 1032.300781 1353.5 1035.191406 1341.628906 1038.410156 L 1345.878906 1031.761719 C 1350.78125 1060.441406 1355.339844 1084.109375 1370.480469 1092.640625 C 1374.890625 1095.121094 1380.511719 1096.460938 1386.558594 1096.460938 L 1386.558594 1096.46875 C 1400.988281 1096.460938 1415.449219 1089 1420.25 1075.71875 C 1421.511719 1072.25 1422.210938 1068.171875 1422.441406 1063.410156 C 1422.929688 1053.320313 1421.308594 1041.261719 1419.421875 1027.339844 C 1417.191406 1011.03125 1414.660156 992.558594 1415.589844 973.78125 C 1417.640625 931.789063 1436.941406 889.050781 1455.550781 847.648438 C 1456.480469 845.558594 1458.550781 844.210938 1460.828125 844.191406 C 1485.738281 843.910156 1508.710938 843.519531 1528.878906 831.378906 C 1549.390625 819.03125 1567.539063 794.289063 1586.648438 768.039063 L 1595.960938 775.160156 C 1553.019531 828.710938 1511.988281 880.230469 1508.410156 935.261719 C 1504.828125 990.25 1538.789063 1049.941406 1574.640625 1078.089844 C 1596.21875 1095.03125 1618.390625 1100.390625 1638.21875 1100.390625 C 1650.789063 1100.390625 1662.460938 1098.230469 1672.46875 1095.429688 C 1700.539063 1087.550781 1708.691406 1076.898438 1707.578125 1071.160156 C 1707.128906 1068.859375 1705.328125 1065.890625 1701.339844 1061.730469 C 1698.109375 1058.339844 1693.960938 1054.710938 1689.070313 1050.421875 C 1683.070313 1045.160156 1676.128906 1039.089844 1669.28125 1031.941406 C 1650.058594 1011.871094 1631.019531 982.640625 1646.320313 935.398438 L 1646.320313 935.410156 C 1661.070313 889.808594 1708.269531 827.078125 1754.328125 765.71875 C 1756.039063 763.429688 1759.148438 762.71875 1761.691406 764.019531 C 1764.230469 765.328125 1765.46875 768.269531 1764.609375 771 C 1750.558594 815.601563 1736.730469 859.578125 1734.351563 920.941406 C 1731.929688 983.46875 1741.460938 1060.929688 1762.089844 1085.910156 C 1768.25 1093.371094 1775.359375 1095.871094 1783.320313 1095.871094 L 1783.320313 1095.878906 C 1785.839844 1095.871094 1788.480469 1095.621094 1791.230469 1095.148438 C 1799.160156 1093.808594 1807.46875 1090.828125 1816.109375 1087.710938 C 1823.949219 1084.871094 1832.21875 1081.871094 1839.871094 1080.570313 C 1843.121094 1080.019531 1846.238281 1079.769531 1849.25 1079.769531 C 1862.410156 1079.769531 1873.019531 1084.519531 1880.980469 1088.03125 C 1887.191406 1090.769531 1890.898438 1092.289063 1893.820313 1092.289063 C 1894.019531 1092.289063 1894.210938 1092.28125 1894.378906 1092.261719 C 1901.929688 1091.621094 1908.550781 1077.890625 1917.410156 1056.5 L 1927.140625 1062.71875 C 1924 1066.121094 1919 1071.890625 1910.320313 1071.890625 C 1906.398438 1071.890625 1902.199219 1070.71875 1897.578125 1068.421875 C 1882.941406 1061.140625 1861.449219 1041.320313 1854.871094 993.898438 C 1848.398438 947.28125 1856.308594 872.960938 1864.039063 799.890625 C 1864.371094 796.828125 1867 794.539063 1870.078125 794.640625 C 1873.148438 794.75 1875.621094 797.21875 1875.730469 800.300781 C 1877.890625 861.121094 1880.039063 921.089844 1890.910156 967.351563 C 1901.769531 1013.480469 1921.101563 1045.019531 1947.671875 1061.558594 C 1960.691406 1069.671875 1975.460938 1074.191406 1988.878906 1074.191406 C 2002.949219 1074.191406 2015.140625 1069.261719 2022.898438 1058.738281 C 2039.191406 1036.679688 2038.308594 989.109375 2037 937.640625 C 2036.929688 934.800781 2038.910156 932.308594 2041.691406 931.75 C 2130.46875 913.78125 2219.128906 895.839844 2275.75 884.28125 L 2276.171875 884.191406 C 2297.980469 879.738281 2315.660156 876.109375 2335.570313 876.109375 C 2366.921875 876.109375 2403.179688 885.089844 2470.640625 912.089844 C 2581.410156 956.410156 2778.230469 1050.140625 2928.671875 1135.21875 C 2966.328125 1156.519531 3001.078125 1177.269531 3033.648438 1196.730469 C 3131.539063 1255.199219 3209.269531 1301.550781 3289.050781 1317.578125 C 3315 1322.789063 3341.261719 1324.808594 3366.03125 1324.808594 C 3434.910156 1324.808594 3490.128906 1309.328125 3495.789063 1305.230469 C 3496.050781 1305.039063 3495.160156 1305.558594 3494.589844 1306.878906 C 3492.890625 1310.859375 3496.160156 1313.421875 3497.269531 1313.890625 C 3497.671875 1314.058594 3497.921875 1314.101563 3497.871094 1314.089844 C 3497.769531 1314.070313 3497.351563 1314.019531 3496.429688 1314.019531 C 3490.488281 1314.019531 3476.378906 1315.839844 3456.480469 1318.410156 C 3416.929688 1323.53125 3356.730469 1331.320313 3303.320313 1331.320313 C 3292.878906 1331.320313 3282.679688 1331.03125 3272.921875 1330.351563 C 3181.929688 1324.058594 3131.269531 1284.96875 3081.699219 1246.800781 L 3089.320313 1246.410156 C 3041.199219 1292.109375 2993.21875 1337.679688 2940.179688 1395.148438 C 2887.109375 1452.660156 2828.949219 1522.121094 2770.660156 1591.71875 L 2772.019531 1588.230469 C 2767.441406 1686.121094 2763.078125 1782.109375 2806.980469 1869.078125 C 2851.039063 1956.359375 2943.921875 2035.101563 3038.21875 2114.898438 L 3029.929688 2115.609375 C 3181.070313 1935.101563 3332.019531 1754.820313 3474.691406 1547.359375 C 3618.421875 1338.359375 3748.828125 1108.179688 3574.390625 935.28125 C 3397.519531 759.96875 2908.109375 641.328125 2601.539063 591.160156 C 2454.941406 567.171875 2351.109375 558.988281 2269.53125 558.988281 C 2181.078125 558.988281 2118.640625 568.609375 2055.878906 578.28125 C 2053.789063 578.601563 2051.691406 577.769531 2050.378906 576.109375 C 2030.851563 551.339844 2011.410156 526.609375 1945.980469 478.390625 C 1881.730469 431.050781 1774.230469 361.929688 1628.210938 361.929688 C 1625.089844 361.929688 1621.96875 361.960938 1618.808594 362.03125 C 1467.351563 365.089844 1275.171875 442.828125 1182.28125 525.480469 C 1090.570313 607.089844 1095.839844 693.421875 1101.429688 782.421875 C 1101.488281 783.390625 1101.308594 784.359375 1100.910156 785.238281 C 1081.269531 827.871094 1061.960938 869.820313 1052.679688 922.03125 C 1043.378906 974.378906 1044.128906 1037.109375 1054.269531 1085.210938 L 1054.269531 1085.21875 C 1064.371094 1133.089844 1083.769531 1166.628906 1103.621094 1200.890625 C 1105.089844 1203.421875 1104.460938 1206.640625 1102.160156 1208.441406 C 1099.859375 1210.25 1096.589844 1210.078125 1094.480469 1208.050781 L 1094.480469 1208.058594 C 1076.851563 1191.058594 1062.121094 1177.429688 1049.609375 1177.429688 C 1047.789063 1177.429688 1046.03125 1177.730469 1044.300781 1178.371094 C 1030.460938 1183.539063 1015.191406 1211.761719 1014.511719 1245.460938 C 1013.839844 1278.300781 1027.371094 1313.859375 1043.191406 1354.679688 C 1059.101563 1395.730469 1075.980469 1438.570313 1095.628906 1458.589844 C 1108.601563 1471.820313 1122.929688 1474.980469 1138.589844 1474.980469 C 1145.449219 1474.980469 1152.449219 1474.371094 1159.761719 1473.730469 C 1162.601563 1473.480469 1165.210938 1475.308594 1165.941406 1478.070313 C 1196.398438 1593.351563 1226.679688 1707.878906 1260.328125 1783.078125 C 1293.691406 1857.660156 1330.289063 1893.320313 1383.75 1932.679688 C 1437.390625 1972.160156 1507.621094 2015.03125 1578.199219 2058.109375 L 1578.851563 2058.511719 C 1581.5 2060.121094 1582.429688 2063.519531 1580.96875 2066.261719 C 1579.519531 2069 1576.179688 2070.128906 1573.359375 2068.839844 C 1512.359375 2040.960938 1450.558594 2012.75 1396.660156 1969.199219 C 1342.910156 1925.78125 1297.210938 1867.261719 1252.039063 1809.410156 L 1251.78125 1809.078125 L 1262.230469 1806.078125 C 1258.851563 1838.769531 1255.398438 1872.460938 1241.398438 1905.230469 L 1241.398438 1905.238281 C 1227.449219 1937.890625 1203.140625 1969.359375 1179.460938 2000.058594 L 1178.320313 1991.769531 C 1251.171875 2046.078125 1323.710938 2100.160156 1385.898438 2138.359375 C 1447.96875 2176.480469 1499.769531 2198.808594 1551.898438 2221.269531 C 1554.671875 2222.46875 1556.089844 2225.578125 1555.160156 2228.460938 C 1554.230469 2231.328125 1551.269531 2233.03125 1548.320313 2232.378906 C 1495.570313 2220.75 1442.039063 2208.96875 1378.898438 2170.28125 L 1378.898438 2170.289063 C 1316.109375 2131.800781 1243.890625 2066.730469 1172.269531 2002.210938 L 1177.351563 2003.609375 C 990.066406 2041.089844 803.914063 2078.398438 675.796875 2139.960938 C 548.296875 2201.21875 479.378906 2285.898438 481.664063 2420.140625 L 481.664063 2420.148438 C 483.96875 2555.878906 558.914063 2742.679688 626.335938 2884.601563 C 693.894531 3026.804688 752.582031 3121.136719 786.957031 3147.21875 L 786.957031 3147.222656 C 794.148438 3152.675781 799.546875 3154.542969 803.871094 3154.542969 C 810.84375 3154.542969 817.8125 3149.648438 827.398438 3138.027344 L 827.398438 3138.03125 C 832.394531 3131.972656 837.722656 3124.585938 843.890625 3116.03125 C 851.78125 3105.085938 860.925781 3092.402344 872.042969 3078.929688 C 896.171875 3049.6875 929.476563 3016.855469 962 2986.296875 C 977.679688 2971.5625 993.21875 2957.3125 1007.5 2944.214844 L 1007.5 2944.21875 C 1019.738281 2933 1030.949219 2922.722656 1040.679688 2913.578125 C 1077.589844 2878.890625 1091.628906 2861.96875 1109.550781 2839.015625 L 1109.550781 2839.019531 C 1111.351563 2836.703125 1113.160156 2834.375 1115.070313 2831.914063 C 1117.128906 2829.277344 1119.230469 2826.574219 1121.460938 2823.714844 C 1146.460938 2791.699219 1185.609375 2743.078125 1216.300781 2718.429688 C 1221.558594 2714.210938 1226.53125 2710.710938 1230.890625 2707.648438 C 1249.929688 2694.269531 1259.199219 2690.589844 1234.039063 2652.050781 C 1201.828125 2602.730469 1115.839844 2503.878906 1029.28125 2404.421875 L 1032.578125 2406.320313 C 878.441406 2376.390625 725.894531 2346.789063 704.820313 2346.789063 C 704.28125 2346.789063 704.03125 2346.808594 703.980469 2346.820313 C 702.394531 2347.03125 706.34375 2347.121094 707.695313 2343.449219 L 707.695313 2343.460938 C 709.53125 2338.480469 704.070313 2336.070313 706.074219 2337.351563 C 706.367188 2337.53125 707.515625 2338.101563 710.113281 2339.058594 C 717.550781 2341.800781 732.664063 2346.300781 752.523438 2352.210938 C 815.699219 2371.011719 926.386719 2403.851563 970.09375 2435.769531 C 985.171875 2446.78125 997.113281 2461.558594 986.09375 2476.660156 C 954.617188 2519.761719 703.8125 2545.460938 637.8125 2545.460938 C 629.960938 2545.460938 623.285156 2545.148438 619.890625 2543.960938 C 619.242188 2543.738281 618.242188 2543.328125 617.304688 2542.578125 C 614.5 2540.328125 613.941406 2536.339844 616.292969 2533.410156 C 617.035156 2532.480469 617.90625 2531.871094 618.480469 2531.519531 C 633.320313 2522.230469 789.460938 2498.460938 901.398438 2498.460938 L 901.398438 2498.46875 C 957.296875 2498.460938 1008.359375 2504.078125 1021.488281 2525.390625 L 1021.488281 2525.398438 C 1023.300781 2528.320313 1024.378906 2531.5 1024.808594 2534.828125 L 1024.808594 2534.839844 C 1033.058594 2600.359375 760.261719 2746.441406 725.050781 2750.882813 C 724.265625 2750.980469 723.480469 2751.039063 722.707031 2751.039063 C 720.753906 2751.039063 715.667969 2750.535156 714.25 2745.441406 C 713.648438 2743.28125 714.148438 2741.328125 714.609375 2740.101563 L 714.234375 2742.148438 L 714.609375 2740.101563 C 723.582031 2716.121094 909.394531 2591.949219 1025.75 2559.578125 C 1048.851563 2553.148438 1069.550781 2550.199219 1088.25 2550.199219 C 1177.070313 2550.199219 1217.730469 2616.671875 1256.480469 2679.320313 L 1254.929688 2677.648438 C 1320.960938 2725.351563 1390.921875 2775.328125 1395.351563 2849.078125 C 1399.71875 2921.835938 1339.738281 3016.257813 1281.839844 3107.902344 C 1280.199219 3110.503906 1276.828125 3111.390625 1274.121094 3109.941406 C 1271.410156 3108.492188 1270.28125 3105.195313 1271.53125 3102.386719 L 1271.53125 3102.390625 C 1366.519531 2889.050781 1461.28125 2676.199219 1520.058594 2462.859375 L 1520.058594 2462.871094 C 1578.871094 2249.410156 1601.578125 2035.78125 1588.089844 1912.738281 C 1574.730469 1790.929688 1526.019531 1758.640625 1487.890625 1734.460938 C 1483.25 1731.519531 1478.789063 1728.71875 1474.449219 1725.988281 C 1442.660156 1706.019531 1417.808594 1690.558594 1404.28125 1669.78125 C 1393.609375 1653.398438 1390.210938 1634.191406 1388.089844 1615.238281 L 1388.089844 1615.25 C 1387.609375 1610.921875 1387.179688 1606.558594 1386.761719 1602.230469 C 1386.339844 1597.839844 1385.910156 1593.488281 1385.429688 1589.148438 C 1382.328125 1561.558594 1376.570313 1534.089844 1370.738281 1506.308594 C 1370.289063 1504.191406 1371.058594 1501.988281 1372.71875 1500.609375 C 1374.390625 1499.210938 1376.691406 1498.859375 1378.691406 1499.679688 C 1401.671875 1509.078125 1427.109375 1519.269531 1440.53125 1538.679688 C 1441.640625 1540.289063 1442.671875 1541.960938 1443.609375 1543.660156 C 1452.851563 1560.398438 1456.261719 1588.039063 1442.808594 1595.460938 C 1440.691406 1596.628906 1438.410156 1597.089844 1436.191406 1597.089844 C 1423.628906 1597.089844 1405.078125 1580.71875 1389.949219 1567.808594 C 1389.308594 1567.25 1388.789063 1566.570313 1388.429688 1565.808594 C 1377.988281 1543.179688 1365.929688 1517.660156 1369.109375 1498.929688 C 1372.03125 1481.789063 1386.890625 1471.199219 1403.941406 1471.199219 C 1407.121094 1471.199219 1410.378906 1471.558594 1413.660156 1472.308594 C 1434.320313 1476.988281 1455.53125 1496.570313 1468.519531 1526.789063 C 1471.328125 1533.339844 1473.761719 1540.398438 1476.238281 1547.589844 C 1485.21875 1573.609375 1495.550781 1603.429688 1529.589844 1631.378906 C 1572.320313 1666.460938 1652.261719 1698.511719 1713.96875 1698.511719 C 1716.019531 1698.511719 1718.058594 1698.46875 1720.050781 1698.398438 C 1781.488281 1696.199219 1822.820313 1659.699219 1860.46875 1617.53125 L 1860.46875 1617.539063 C 1898.050781 1575.449219 1930.789063 1529.128906 1963.738281 1482.488281 C 1965.089844 1480.578125 1967.441406 1479.660156 1969.730469 1480.140625 C 1972.011719 1480.609375 1973.800781 1482.398438 1974.269531 1484.691406 C 1980.5 1514.789063 1986.789063 1545.230469 1987.839844 1593.339844 C 1987.949219 1598.570313 1988 1604.039063 1988 1609.550781 C 1988 1648.179688 1985.46875 1692.53125 1983.769531 1699.019531 C 1984.441406 1696.449219 1983.609375 1704 1977.800781 1704 C 1971.519531 1704 1971.25 1695.648438 1971.78125 1698.558594 C 1971.761719 1698.441406 1971.738281 1698.320313 1971.71875 1698.210938 C 1970.269531 1688.710938 1971.738281 1605 1973.160156 1522.769531 C 1973.160156 1522.699219 1973.160156 1522.621094 1973.171875 1522.558594 C 1976.679688 1458.078125 1980.058594 1395.011719 1966.511719 1346.210938 C 1965.269531 1341.769531 1963.898438 1337.441406 1962.410156 1333.21875 C 1953.71875 1308.589844 1941.21875 1287.808594 1930.628906 1270.238281 C 1923.339844 1258.140625 1916.640625 1247.089844 1913.308594 1237.648438 L 1913.308594 1237.660156 C 1911.558594 1232.679688 1910.660156 1227.988281 1910.660156 1223.660156 C 1910.660156 1209.058594 1920.78125 1200.671875 1934.289063 1200.671875 C 1938.75 1200.671875 1943.519531 1201.558594 1948.421875 1203.261719 C 1970.648438 1211 2000.429688 1237.929688 2003.800781 1259.761719 C 2004.019531 1261.199219 2004.128906 1262.628906 2004.128906 1264.039063 C 2004.128906 1281.519531 1988.019531 1292.121094 1971.671875 1292.121094 C 1966.859375 1292.121094 1961.878906 1291.25 1956.988281 1289.390625 C 1934.570313 1280.851563 1914.640625 1251.449219 1912 1232.089844 C 1908.96875 1209.96875 1927.449219 1200.558594 1940.429688 1193.5 C 1942.539063 1192.359375 1945.128906 1192.609375 1946.980469 1194.148438 C 1974.121094 1216.761719 2002.070313 1240 2023.640625 1286.519531 C 2044.949219 1332.488281 2059.980469 1401.199219 2074.828125 1468.898438 C 2075.519531 1472.03125 2073.570313 1475.121094 2070.460938 1475.859375 C 2067.351563 1476.601563 2064.21875 1474.710938 2063.429688 1471.609375 C 2043.589844 1394.089844 2023.988281 1317.671875 2000.128906 1271.511719 C 1976.730469 1226.25 1949.328125 1210.390625 1915.160156 1194.199219 C 1909.570313 1191.550781 1903.820313 1188.898438 1898.011719 1186.230469 C 1868.628906 1172.699219 1836.238281 1157.960938 1821.910156 1140.03125 C 1817.289063 1134.25 1814.441406 1128.058594 1813.230469 1121.878906 C 1809.738281 1103.960938 1820.421875 1087.21875 1838.421875 1083.710938 C 1840.910156 1083.21875 1843.488281 1083 1846.109375 1083 C 1867.480469 1083 1896.289063 1097.878906 1922.941406 1111.480469 C 1924.398438 1112.21875 1925.480469 1113.539063 1925.929688 1115.121094 C 1926.371094 1116.699219 1926.128906 1118.390625 1925.269531 1119.78125 C 1918.191406 1131.21875 1909.269531 1146.328125 1889.878906 1147 C 1889.429688 1147.011719 1888.980469 1147.019531 1888.53125 1147.019531 C 1870.871094 1147.019531 1845.878906 1135.460938 1832.5 1119.609375 C 1827.210938 1113.351563 1823.019531 1105.570313 1823.019531 1098.351563 C 1823.019531 1088.230469 1830.820313 1082.550781 1842.539063 1082.550781 C 1847.199219 1082.550781 1852.71875 1083.371094 1859.140625 1085.039063 C 1894.578125 1094.269531 1965.140625 1131.78125 2016.140625 1170.019531 C 2067.480469 1208.511719 2099.558594 1248.121094 2120.488281 1283.691406 C 2141.519531 1319.441406 2151.261719 1351.089844 2156.558594 1397.738281 C 2160.46875 1432.160156 2161.980469 1474.890625 2162.761719 1504.390625 C 2162.910156 1510.148438 2163.03125 1515.421875 2163.140625 1520.03125 C 2163.230469 1523.589844 2163.300781 1526.828125 2163.378906 1529.519531 C 2163.589844 1537.78125 2163.769531 1541.28125 2163.878906 1542.039063 C 2164.558594 1547.03125 2164.820313 1537.359375 2158.179688 1537.359375 C 2151.5 1537.359375 2151.789063 1547.140625 2152.46875 1542.058594 C 2152.628906 1540.828125 2152.808594 1534.730469 2153 1527.839844 L 2153 1527.789063 C 2153.070313 1525.398438 2154.628906 1523.269531 2156.929688 1522.460938 C 2159.21875 1521.660156 2161.78125 1522.359375 2163.339844 1524.21875 C 2193.210938 1559.671875 2225.601563 1597.859375 2195.640625 1663.128906 C 2166.78125 1726.039063 2079.21875 1814.910156 1993.101563 1902.441406 L 1994.71875 1899.179688 C 1974.109375 2039.109375 1953.488281 2178.980469 1933.519531 2480.21875 C 1932.238281 2499.578125 1930.96875 2519.558594 1929.648438 2540.140625 C 1910.550781 2838.761719 1884.078125 3257.734375 1731.46875 3428.871094 C 1664.980469 3503.441406 1574.980469 3530.855469 1480.039063 3530.855469 C 1339.96875 3530.855469 1188.03125 3471.238281 1080.980469 3413.789063 L 1080.980469 3413.792969 C 900.765625 3317.078125 845.46875 3225.246094 790.585938 3133.976563 C 788.996094 3131.332031 789.730469 3127.910156 792.261719 3126.144531 C 794.792969 3124.382813 798.253906 3124.882813 800.183594 3127.289063 L 800.183594 3127.292969 L 914.183594 3269.496094 C 915.601563 3271.269531 915.875 3273.699219 914.875 3275.738281 C 913.878906 3277.777344 911.796875 3279.058594 909.527344 3279.023438 L 909.527344 3279.027344 L 90.617188 3267.503906 C 87.378906 3267.457031 84.792969 3264.796875 84.839844 3261.558594 C 84.882813 3258.324219 87.546875 3255.734375 90.78125 3255.78125 Z M 90.78125 3255.78125 "/>
</g>
</svg>
